<?xml version="1.0" encoding="UTF-8" standalone="no"?><svg xmlns="http://www.w3.org/2000/svg" xmlns:xlink="http://www.w3.org/1999/xlink" contentScriptType="text/ecmascript" fill="#000000" width="114.91" zoomAndPan="magnify" contentStyleType="text/css" viewBox="0 0 114.91 104.2" height="104.2" preserveAspectRatio="xMidYMid meet" version="1"><g data-name="Camada 2"><g data-name="Camada 1"><path fill="#d2e9ef" d="M0,15.21v4.68a57,57,0,0,0,2.06,15.2l.51,1.85A26.38,26.38,0,0,0,5,42.86l.85,1.49a35.82,35.82,0,0,0,8,9.68l.73.62a27.78,27.78,0,0,0,6.55,4.14l1,.46a36.56,36.56,0,0,0,8.22,2.6l2.35.45a25.75,25.75,0,0,0,4.8.45h6.57l-.4-5a37,37,0,0,0-2.61-11l-.28-.69A45.48,45.48,0,0,0,34.9,35.69l-.68-.9a43.37,43.37,0,0,0-8.9-8.74l-.7-.51c-3.55-2.59-6.79-4.95-10.91-6.48l-1.89-.72a49.43,49.43,0,0,0-7.54-2.23L0,15.21Z"/><path fill="#008ea0" d="M0,15.21l7.8-.3a51,51,0,0,1,6.66.17l1.32.12a41.33,41.33,0,0,1,9.33,2L28,18.1a3.33,3.33,0,0,1,.61.27,40.64,40.64,0,0,1,9.51,7.07l.09.1,1.67,2.34a27.31,27.31,0,0,1,3.87,7.84l.31,1c.07.24.13.47.18.71A63,63,0,0,1,45.4,49.66V51.5a41.57,41.57,0,0,1-.92,8.69l-.37,1.7L42,51.17A36.39,36.39,0,0,0,39.28,43a28.39,28.39,0,0,0-2.78-4.69l-.09-.12a48.66,48.66,0,0,0-6.79-7.48l-4.35-3.9L23,24.88a36.53,36.53,0,0,0-6.16-4.15L14.7,19.6a21.17,21.17,0,0,0-2-1,44.35,44.35,0,0,0-8.45-2.58L0,15.21Z"/><path fill="#f8d7e0" d="M1,102.76l.39-3.92A45.38,45.38,0,0,1,4.51,86.32l.62-1.51a21.07,21.07,0,0,1,2.69-4.72l.89-1.18a30.69,30.69,0,0,1,8-7.37l.7-.45a25.21,25.21,0,0,1,6.23-2.87l1-.3a34.71,34.71,0,0,1,7.59-1.42l2.14-.16a25.28,25.28,0,0,1,4.35,0l5.89.6-.78,4.15a29.29,29.29,0,0,1-3.28,9l-.31.56A37.33,37.33,0,0,1,34,88.79l-.68.69A37.87,37.87,0,0,1,24.61,96l-.67.36a40.65,40.65,0,0,1-10.34,4.43l-1.75.44A47.81,47.81,0,0,1,4.9,102.4L1,102.76Z"/><path fill="#e07ca0" d="M1,102.76l7,1a49.83,49.83,0,0,0,6,.46l1.19,0a40,40,0,0,0,8.54-.79l2.62-.53a3.43,3.43,0,0,0,.57-.17A36.63,36.63,0,0,0,36,97.65h0l.08-.07,1.7-1.81a22.32,22.32,0,0,0,4.14-6.21l.35-.79a4.07,4.07,0,0,0,.22-.58,48.93,48.93,0,0,0,2.13-10.14l.15-1.54a32.27,32.27,0,0,0-.09-7.35l-.18-1.46-2.83,8.78a29,29,0,0,1-3.11,6.62,22.74,22.74,0,0,1-2.89,3.68l-.09.09a41.78,41.78,0,0,1-6.71,5.64l-4.24,2.87-2.19,1.38a33.86,33.86,0,0,1-5.88,2.91l-2,.76c-.62.23-1.26.44-1.91.62a42.68,42.68,0,0,1-7.79,1.39L1,102.76Z"/><path fill="#d2e9ef" d="M75,97.29l.15-2.92a33.23,33.23,0,0,0-.87-9.52L74,83.68a15.59,15.59,0,0,0-1.43-3.76l-.51-1a22.66,22.66,0,0,0-5-6.3l-.46-.41a18.87,18.87,0,0,0-4.23-2.81l-.68-.32a26,26,0,0,0-5.39-1.91l-1.55-.36a19,19,0,0,0-3.19-.45l-4.38-.23.1,3.12a22,22,0,0,0,1.38,6.93l.17.44a27.55,27.55,0,0,0,3.6,6.66l.42.58a28.23,28.23,0,0,0,5.65,5.75L59,90A30.2,30.2,0,0,0,66,94.4l1.23.52a34.34,34.34,0,0,0,5,1.65l2.82.72Z"/><path fill="#008ea0" d="M75,97.29l-5.21-.09a36.56,36.56,0,0,1-4.43-.35l-.87-.12a29.4,29.4,0,0,1-6.16-1.54L56.5,94.5a2.93,2.93,0,0,1-.4-.19A27.16,27.16,0,0,1,50,89.58l-.06-.07-1-1.51a16.81,16.81,0,0,1-2.33-5l-.17-.63a3.12,3.12,0,0,1-.09-.44,36.44,36.44,0,0,1-.41-7.66L46,73.11a23.47,23.47,0,0,1,.9-5.37l.29-1,1.08,6.74a21.23,21.23,0,0,0,1.52,5.2,17.67,17.67,0,0,0,1.7,3l.06.08a30.87,30.87,0,0,0,4.27,4.88l2.77,2.58L60,90.46a24.62,24.62,0,0,0,4,2.79l1.39.79c.43.24.87.47,1.32.67a31.6,31.6,0,0,0,5.55,1.9l2.78.68Z"/><path fill="#f8d7e0" d="M114.91,1.15l-.27,6.39a74.22,74.22,0,0,1-3.87,20.58l-.85,2.5A35,35,0,0,1,106,38.53l-1.31,2A49.61,49.61,0,0,1,92.63,53.2l-1.09.8a40,40,0,0,1-9.7,5.23l-1.52.57a55.58,55.58,0,0,1-12,3l-3.41.46a39.54,39.54,0,0,1-7,.32l-9.48-.41.88-6.8a48.07,48.07,0,0,1,4.42-14.83l.45-.93a61.16,61.16,0,0,1,9.15-13.76l1-1.18A60.81,60.81,0,0,1,77.75,14.34l1-.65c5.27-3.31,10.1-6.32,16.14-8.15l2.76-.87a74.87,74.87,0,0,1,11-2.56l6.22-1Z"/><path fill="#e07ca0" d="M114.91,1.15,103.68.25A79.17,79.17,0,0,0,94.06.07l-1.9.08A62.31,62.31,0,0,0,78.57,2.23L74.42,3.34a5.22,5.22,0,0,0-.89.32,58.61,58.61,0,0,0-14.14,9l-.13.14-2.55,3.08a36.49,36.49,0,0,0-6.06,10.44l-.49,1.32c-.12.32-.22.63-.31,1a80.69,80.69,0,0,0-2.47,16.62l-.11,2.51a52.87,52.87,0,0,0,.81,11.91L48.5,62l3.74-14.49a47.41,47.41,0,0,1,4.36-11,37.75,37.75,0,0,1,4.3-6.23l.13-.16a68.12,68.12,0,0,1,10.23-9.77l6.51-5,3.39-2.44A53.07,53.07,0,0,1,90.3,7.62l3.15-1.41c1-.44,2-.84,3-1.19h0a66.48,66.48,0,0,1,12.34-3l6.12-.89Z"/><path fill="#f8d7e0" d="M52.68,14.14A8.78,8.78,0,1,1,43.9,5.36a8.78,8.78,0,0,1,8.78,8.78"/><path fill="#e07ca0" d="M52.68,14.32a8.79,8.79,0,0,0-14-7,8.92,8.92,0,0,1,2.49-.36,8.78,8.78,0,0,1,5.24,15.83,8.79,8.79,0,0,0,6.29-8.42"/></g></g></svg>